<svg xmlns="http://www.w3.org/2000/svg" version="1.1" xmlns:xlink="http://www.w3.org/1999/xlink" width="192px" height="192px"><svg xmlns="http://www.w3.org/2000/svg" version="1.1" width="192px" height="192px" style="shape-rendering:geometricPrecision; text-rendering:geometricPrecision; image-rendering:optimizeQuality; fill-rule:evenodd; clip-rule:evenodd" xmlns:xlink="http://www.w3.org/1999/xlink">
<g><path style="opacity:0.053" fill="#000000" d="M 116.5,191.5 C 102.5,191.5 88.5,191.5 74.5,191.5C 33.1035,179.933 8.60352,152.933 1,110.5C -2.27859,70.5621 12.5547,39.3955 45.5,17C 77.1726,-0.208899 109.173,-0.875566 141.5,15C 181.504,40.5312 196.67,76.6978 187,123.5C 178.445,151.716 160.945,172.216 134.5,185C 128.429,187.299 122.429,189.465 116.5,191.5 Z"></path></g>
<g><path style="opacity:1" fill="#2b626f" d="M 119.5,12.5 C 119.64,14.1238 118.973,15.2904 117.5,16C 120.167,16.6667 120.167,17.3333 117.5,18C 120.167,18.6667 120.167,19.3333 117.5,20C 117.833,21 118.167,22 118.5,23C 115.456,23.3589 115.122,24.0255 117.5,25C 114.833,25.6667 114.833,26.3333 117.5,27C 114.833,27.6667 114.833,28.3333 117.5,29C 116.24,30.113 115.073,30.2797 114,29.5C 113.544,30.7441 114.044,31.5774 115.5,32C 114.944,32.3826 114.611,32.8826 114.5,33.5C 77.1429,25.5951 50.3096,38.9285 34,73.5C 29.5403,87.1567 29.3736,100.823 33.5,114.5C 30.0305,115.734 26.5305,117.068 23,118.5C 19.3762,119.15 15.2096,119.15 10.5,118.5C 3.82975,93.3471 7.32975,69.6804 21,47.5C 22.0491,45.3825 23.5491,43.7158 25.5,42.5C 50.6506,13.047 81.9839,3.04703 119.5,12.5 Z"></path></g>
<g><path style="opacity:1" fill="#4a7680" d="M 154.5,30.5 C 144.139,22.1515 132.472,16.1515 119.5,12.5C 81.9839,3.04703 50.6506,13.047 25.5,42.5C 39.6514,23.4061 58.6514,11.9061 82.5,8C 107.735,4.64094 130.402,10.6409 150.5,26C 152.041,27.3712 153.375,28.8712 154.5,30.5 Z"></path></g>
<g><path style="opacity:1" fill="#235c6a" d="M 119.5,12.5 C 132.472,16.1515 144.139,22.1515 154.5,30.5C 155.239,30.369 155.906,30.5357 156.5,31C 162.863,36.9166 167.863,43.75 171.5,51.5C 169.364,49.1877 167.364,46.6877 165.5,44C 163.687,43.3856 163.353,43.7189 164.5,45C 163.833,46.3333 162.833,47.3333 161.5,48C 162.167,48.3333 162.833,48.6667 163.5,49C 163.048,50.6124 161.715,51.6124 159.5,52C 162.946,52.7039 162.946,54.0372 159.5,56C 159.833,57 160.167,58 160.5,59C 157.456,59.3589 157.122,60.0255 159.5,61C 157.699,61.3173 157.366,61.984 158.5,63C 157.552,63.4828 156.552,63.6495 155.5,63.5C 156.092,66.1272 156.425,68.7938 156.5,71.5C 147.898,52.8997 133.898,40.233 114.5,33.5C 114.611,32.8826 114.944,32.3826 115.5,32C 114.044,31.5774 113.544,30.7441 114,29.5C 115.073,30.2797 116.24,30.113 117.5,29C 114.833,28.3333 114.833,27.6667 117.5,27C 114.833,26.3333 114.833,25.6667 117.5,25C 115.122,24.0255 115.456,23.3589 118.5,23C 118.167,22 117.833,21 117.5,20C 120.167,19.3333 120.167,18.6667 117.5,18C 120.167,17.3333 120.167,16.6667 117.5,16C 118.973,15.2904 119.64,14.1238 119.5,12.5 Z"></path></g>
<g><path style="opacity:1" fill="#1d5765" d="M 171.5,51.5 C 177.571,60.8664 181.404,71.1997 183,82.5C 186.538,126.271 168.705,157.771 129.5,177C 122.471,180.09 115.138,181.924 107.5,182.5C 97.4839,182.547 87.4839,182.213 77.5,181.5C 60.5589,178.525 46.2255,170.859 34.5,158.5C 36.8863,159.373 38.8863,160.873 40.5,163C 43.8333,163.667 47.1667,163.667 50.5,163C 53.8996,160.984 57.733,159.151 62,157.5C 62.3333,157.833 62.6667,158.167 63,158.5C 63.4315,155.928 64.9315,154.594 67.5,154.5C 97.6969,165.895 123.864,159.895 146,136.5C 160.312,116.624 163.812,94.9575 156.5,71.5C 156.425,68.7938 156.092,66.1272 155.5,63.5C 156.552,63.6495 157.552,63.4828 158.5,63C 157.366,61.984 157.699,61.3173 159.5,61C 157.122,60.0255 157.456,59.3589 160.5,59C 160.167,58 159.833,57 159.5,56C 162.946,54.0372 162.946,52.7039 159.5,52C 161.715,51.6124 163.048,50.6124 163.5,49C 162.833,48.6667 162.167,48.3333 161.5,48C 162.833,47.3333 163.833,46.3333 164.5,45C 163.353,43.7189 163.687,43.3856 165.5,44C 167.364,46.6877 169.364,49.1877 171.5,51.5 Z"></path></g>
<g><path style="opacity:1" fill="#9de4f5" d="M 114.5,33.5 C 133.898,40.233 147.898,52.8997 156.5,71.5C 163.812,94.9575 160.312,116.624 146,136.5C 123.864,159.895 97.6969,165.895 67.5,154.5C 50.7858,145.782 39.4525,132.449 33.5,114.5C 29.3736,100.823 29.5403,87.1567 34,73.5C 50.3096,38.9285 77.1429,25.5951 114.5,33.5 Z"></path></g>
<g><path style="opacity:1" fill="#27606d" d="M 120.5,49.5 C 119.118,50.8005 117.452,51.6339 115.5,52C 116.167,52.3333 116.833,52.6667 117.5,53C 117.048,54.6124 115.715,55.6124 113.5,56C 117.5,56.6667 117.5,57.3333 113.5,58C 114.167,58.3333 114.833,58.6667 115.5,59C 114.167,59.3333 112.833,59.6667 111.5,60C 112.167,60.3333 112.833,60.6667 113.5,61C 113.048,62.6124 111.715,63.6124 109.5,64C 111.315,64.7568 112.981,65.5902 114.5,66.5C 95.6401,73.287 76.6401,79.787 57.5,86C 55.5561,88.1529 55.0561,90.6529 56,93.5C 58.0129,95.2482 60.1795,96.5815 62.5,97.5C 60.668,98.1405 60.3347,99.1405 61.5,100.5C 62.1667,99.8333 62.8333,99.1667 63.5,98.5C 64.754,100.259 64.4206,101.759 62.5,103C 60.1667,103.333 57.8333,103.667 55.5,104C 56.8333,104.333 58.1667,104.667 59.5,105C 56.2912,106.403 52.9578,107.403 49.5,108C 52.0635,108.763 52.0635,109.263 49.5,109.5C 47.8228,108.813 46.1561,108.146 44.5,107.5C 39.6222,78.1016 50.9555,57.2683 78.5,45C 93.2772,40.5983 107.277,42.0983 120.5,49.5 Z"></path></g>
<g><path style="opacity:1" fill="#215c69" d="M 120.5,49.5 C 140.106,60.7033 149.273,77.7033 148,100.5C 142.575,130.589 124.575,146.589 94,148.5C 67.9391,146.265 51.4391,132.598 44.5,107.5C 46.1561,108.146 47.8228,108.813 49.5,109.5C 52.0635,109.263 52.0635,108.763 49.5,108C 52.9578,107.403 56.2912,106.403 59.5,105C 58.1667,104.667 56.8333,104.333 55.5,104C 57.8333,103.667 60.1667,103.333 62.5,103C 64.4206,101.759 64.754,100.259 63.5,98.5C 62.8333,99.1667 62.1667,99.8333 61.5,100.5C 60.3347,99.1405 60.668,98.1405 62.5,97.5C 69.9099,99.6924 77.2433,102.192 84.5,105C 88.4626,114.428 92.2959,123.928 96,133.5C 97.8083,135.396 99.975,135.896 102.5,135C 110.711,113.868 118.044,92.3684 124.5,70.5C 122.711,65.5959 119.378,64.2626 114.5,66.5C 112.981,65.5902 111.315,64.7568 109.5,64C 111.715,63.6124 113.048,62.6124 113.5,61C 112.833,60.6667 112.167,60.3333 111.5,60C 112.833,59.6667 114.167,59.3333 115.5,59C 114.833,58.6667 114.167,58.3333 113.5,58C 117.5,57.3333 117.5,56.6667 113.5,56C 115.715,55.6124 117.048,54.6124 117.5,53C 116.833,52.6667 116.167,52.3333 115.5,52C 117.452,51.6339 119.118,50.8005 120.5,49.5 Z"></path></g>
<g><path style="opacity:1" fill="#9fe6f6" d="M 62.5,97.5 C 60.1795,96.5815 58.0129,95.2482 56,93.5C 55.0561,90.6529 55.5561,88.1529 57.5,86C 76.6401,79.787 95.6401,73.287 114.5,66.5C 119.378,64.2626 122.711,65.5959 124.5,70.5C 118.044,92.3684 110.711,113.868 102.5,135C 99.975,135.896 97.8083,135.396 96,133.5C 92.2959,123.928 88.4626,114.428 84.5,105C 77.2433,102.192 69.9099,99.6924 62.5,97.5 Z"></path></g>
<g><path style="opacity:1" fill="#225b68" d="M 33.5,114.5 C 39.4525,132.449 50.7858,145.782 67.5,154.5C 64.9315,154.594 63.4315,155.928 63,158.5C 62.6667,158.167 62.3333,157.833 62,157.5C 57.733,159.151 53.8996,160.984 50.5,163C 47.1667,163.667 43.8333,163.667 40.5,163C 38.8863,160.873 36.8863,159.373 34.5,158.5C 22.4213,147.686 14.4213,134.353 10.5,118.5C 15.2096,119.15 19.3762,119.15 23,118.5C 26.5305,117.068 30.0305,115.734 33.5,114.5 Z"></path></g>
<g><path style="opacity:0.849" fill="#153f4a" d="M 77.5,181.5 C 87.4839,182.213 97.4839,182.547 107.5,182.5C 103.514,183.166 99.3472,183.499 95,183.5C 88.9171,183.701 83.0837,183.034 77.5,181.5 Z"></path></g>
</svg><style>@media (prefers-color-scheme: light) { :root { filter: none; } }
@media (prefers-color-scheme: dark) { :root { filter: none; } }
</style></svg>