<?xml version="1.0" encoding="UTF-8"?>
<!-- Generator: visioncortex VTracer 0.6.4 -->
<svg version="1.1" xmlns="http://www.w3.org/2000/svg" width="226" height="122">
<path d="M0 0 C74.58 0 149.16 0 226 0 C226 40.260000000000005 226 80.52000000000001 226 122 C151.42000000000002 122 76.84 122 0 122 C0 81.74 0 41.47999999999999 0 0 Z " fill="#FDFDFD" transform="translate(0,0)"/>
<path d="M0 0 C6.149682326057047 3.5255507797590937 9.984715709250281 8.710614710207096 13.0625 15 C14.491314452558257 22.779100908372726 14.139360336615368 28.71415109729898 10.25 35.73046875 C6.532746333551188 41.0650851895912 1.8718717593521461 45.10978755424014 -4.375 47.0625 C-12.896228134196122 48.07530882966445 -20.143350363534324 47.920630308739945 -27.3515625 42.84375 C-32.365943678301804 38.42954571948722 -35.84578759400426 33.000954431989385 -36.74609375 26.30078125 C-36.93545130943536 17.95790995487758 -35.41660202994694 11.508262232941632 -29.6953125 5.21484375 C-27.99454650677916 3.6765953961313755 -26.26638905438186 2.356158879182182 -24.375 1.0625 C-23.075625000000002 0.13437499999999858 -23.075625000000002 0.13437499999999858 -21.75 -0.8125 C-14.579912037577401 -3.2025293208075354 -6.94375487607428 -3.0684176745955085 0 0 Z " fill="#DADADA" transform="translate(98.375,59.9375)"/>
<path d="M0 0 C0.7940624999999955 -0.014179687499996874 1.588124999999991 -0.028359375000000853 2.40625 -0.04296875 C4.5 0.1875 4.5 0.1875 6.5 2.1875 C7.392139726044945 5.5354843629593375 7.626117976457294 8.691853159496162 7.62939453125 12.1455078125 C7.632546691894532 13.102898559570313 7.635698852539065 14.060289306640627 7.638946533203125 15.04669189453125 C7.6369223022460915 16.06768981933594 7.634898071289058 17.08868774414063 7.6328125 18.140625 C7.633769226074207 19.196588745117182 7.634725952148443 20.25255249023438 7.635711669921875 21.34051513671875 C7.636390873466837 23.56620340777789 7.634554711123542 25.79189368227381 7.63037109375 28.017578125 C7.624997884898249 31.438846742975784 7.630335793553115 34.85998534446502 7.63671875 38.28125 C7.636058340998545 40.44270862463685 7.634777950677034 42.604167168081744 7.6328125 44.765625 C7.6348367309570335 45.79471984863281 7.636860961914067 46.82381469726562 7.638946533203125 47.88409423828125 C7.634218292236312 49.301267395019536 7.634218292236312 49.301267395019536 7.62939453125 50.7470703125 C7.628598937988272 51.58248352050782 7.627803344726573 52.417896728515615 7.626983642578125 53.27862548828125 C7.5 55.1875 7.5 55.1875 6.5 56.1875 C4.813910340943636 56.25955511363489 3.124993407186196 56.27136067604033 1.4375 56.25 C0.5183984374999966 56.24097656250001 -0.4007031250000068 56.23195312499999 -1.34765625 56.22265625 C-2.057929687500007 56.211054687499995 -2.7682031250000136 56.19945312499999 -3.5 56.1875 C-4.159999999999997 54.537499999999994 -4.819999999999993 52.8875 -5.5 51.1875 C-6.490000000000009 51.99187499999999 -7.47999999999999 52.79625 -8.5 53.625 C-12.416944127153158 56.39129253245626 -15.696068850036568 57.49003764875724 -20.5 57.1875 C-24.948552145050797 56.32250374957346 -28.327453669960292 54.771092684501724 -31.375 51.375 C-36.38301272276158 43.862980915857634 -36.261314390139674 35.956713901238516 -35.5 27.1875 C-33.98592886467152 21.712291407920247 -31.271250229689073 18.326480414269128 -26.5 15.1875 C-22.580005513657824 13.227502756828926 -17.78367670095804 13.83414316649116 -13.5 14.1875 C-9.896688951141584 15.76394858387556 -8.318863313159227 17.368636686840773 -5.5 20.1875 C-5.9950000000000045 10.782499999999999 -5.9950000000000045 10.782499999999999 -6.5 1.1875 C-4.146536038997567 0.010768019498776482 -2.619396698838102 0.021261336841220668 0 0 Z " fill="#DADADA" transform="translate(153.5,50.8125)"/>
<path d="M0 0 C3.6300000000000026 0 7.260000000000002 0 11 0 C11.0605859375 1.215585937500002 11.121171875000002 2.431171874999997 11.18359375 3.68359375 C11.26798331660114 5.268242278399136 11.35263210244242 6.852877017245795 11.4375 8.4375 C11.476816406250002 9.239941406249997 11.5161328125 10.042382812500001 11.556640625 10.869140625 C11.405429597597394 14.752395609529088 11.405429597597394 14.752395609529088 13 18 C18.0086075492503 17.830216693245745 21.763212948079115 17.419172464234023 25.61328125 13.875 C28.662449757646037 9.752180609380005 30.273710945822067 4.789306358272405 32 0 C33.81242051710851 -0.026872791851694444 35.62495233436317 -0.04633715457394061 37.4375 -0.0625 C38.4468359375 -0.07410156249999744 39.456171875 -0.08570312500000199 40.49609375 -0.09765625 C43 0 43 0 44 1 C44.3792272915676 6.5936025506221725 44.22515631993142 10.214284170424342 41 15 C37.14850700139335 18.97793090007606 33.09029835718252 21.765234867578414 28 24 C28.7360546875 24.363515625000005 29.472109375000002 24.727031249999996 30.23046875 25.1015625 C37.69655843563285 28.948028784540043 41.6971656752083 31.870779831407987 45.8125 39.25 C47.285474020173965 43.90149690581251 47.48278307026857 48.15360071768859 47 53 C45.12274106455869 54.87725893544132 42.07149692532019 54.21702304150729 39.5625 54.25 C38.3881640625 54.275781249999994 37.213828125 54.3015625 36.00390625 54.328125 C35.0126171875 54.219843749999995 34.021328125 54.11156249999999 33 54 C31 51 31 51 30.1875 47.3125 C28.707637546422546 41.131228366980324 25.930190029438975 35.867484546280565 20.4375 32.4375 C17.252743724195554 30.797936120821532 17.252743724195554 30.797936120821532 14.625 31.1875 C13.003294039229345 31.891296705431714 13.003294039229345 31.891296705431714 12 33 C11.925382308690295 34.47743028793212 11.91673165643481 35.958332419412486 11.9375 37.4375 C11.945234374999998 38.332109375 11.95296875 39.22671875 11.9609375 40.1484375 C11.973828125 41.089453125000006 11.986718750000001 42.03046875 12 43 C12.025398763673934 44.85410974819706 12.046469327879429 46.70828559138731 12.0625 48.5625 C12.074101562499997 49.388789062499995 12.085703125000002 50.21507812499999 12.09765625 51.06640625 C12 53 12 53 11 54 C9.002004282591827 54.09873816045331 7.000428417031422 54.1297179915496 5 54.125 C3.9068749999999994 54.127578125 2.813749999999999 54.13015625 1.6875 54.1328125 C-0.9999999999999964 54 -0.9999999999999964 54 -2 53 C-2.1032823243373695 51.59459192986003 -2.1384972681692123 50.18408412688373 -2.145263671875 48.77490234375 C-2.1516435241699217 47.87661712646485 -2.1580233764648433 46.97833190917969 -2.1645965576171875 46.052825927734375 C-2.16626579284668 44.58421615600585 -2.16626579284668 44.58421615600585 -2.16796875 43.0859375 C-2.171297149658203 42.0829360961914 -2.1746255493164064 41.07993469238281 -2.1780548095703125 40.046539306640625 C-2.183130831702462 37.916284788297475 -2.185462928431244 35.786022278695654 -2.185302734375 33.65576171875 C-2.187476763326236 30.40969493578207 -2.205590773371396 27.16397475783262 -2.224609375 23.91796875 C-2.2275457177770157 21.848959495099592 -2.2295289006894556 19.77994862506813 -2.23046875 17.7109375 C-2.2376542663574224 16.744009704589843 -2.244839782714843 15.777081909179685 -2.2522430419921875 14.780853271484375 C-2.2343792068960813 9.455325345533865 -1.7541689268932679 5.037858443993201 0 0 Z " fill="#DADADA" transform="translate(13,53)"/>
<path d="M0 0 C0.6770800781250159 -0.010957031250001137 1.3541601562500034 -0.021914062500002274 2.0517578125 -0.033203125 C8.004041380295234 0.13611146398093865 11.565147784441848 2.329933300035094 15.65234375 6.50390625 C18.037173363883653 10.864049281443812 17.617469378829128 15.840994992487055 16.8125 20.625 C14.707312107066656 24.00342868041193 11.561709555555325 25.250395222222338 8.0625 27 C2.2562840064064176 28.116579998768003 -3.5173411264411527 27.153591217065397 -9.1875 25.625 C-8.175168002921055 28.56076279152893 -7.2239205781917235 29.600127410015403 -4.625 31.375 C0.22883178650408809 33.140029740546936 4.983014674877666 33.88436630077699 9.83984375 31.72265625 C11.518771879895894 30.725238058666505 13.167666070332558 29.677693714987157 14.8125 28.625 C15.802500000000009 28.625 16.79249999999999 28.625 17.8125 28.625 C17.92074843382815 30.22767820084465 17.998206451429326 31.83245748389612 18.0625 33.4375 C18.10890624999999 34.33082031250001 18.155312500000008 35.22414062499999 18.203125 36.14453125 C17.8125 38.625 17.8125 38.625 16.1171875 40.37109375 C9.288119405356383 44.08656978115356 0.26770431732617794 44.54134605171734 -7.1875 42.625 C-13.288273698630462 39.895983785932145 -17.487269683283785 36.11047214926826 -20.4375 30.0625 C-22.01281480675999 22.84230713568337 -22.585584298606477 14.907763899429213 -18.61328125 8.3828125 C-13.4413730453455 2.0064873161793884 -8.140519219938938 0.09686659026014866 0 0 Z " fill="#DADADA" transform="translate(190.1875,64.375)"/>
<path d="M0 0 C6.149682326057047 3.5255507797590937 9.984715709250281 8.710614710207096 13.0625 15 C14.491314452558257 22.779100908372726 14.139360336615368 28.71415109729898 10.25 35.73046875 C6.532746333551188 41.0650851895912 1.8718717593521461 45.10978755424014 -4.375 47.0625 C-12.896228134196122 48.07530882966445 -20.143350363534324 47.920630308739945 -27.3515625 42.84375 C-32.365943678301804 38.42954571948722 -35.84578759400426 33.000954431989385 -36.74609375 26.30078125 C-36.93545130943536 17.95790995487758 -35.41660202994694 11.508262232941632 -29.6953125 5.21484375 C-27.99454650677916 3.6765953961313755 -26.26638905438186 2.356158879182182 -24.375 1.0625 C-23.075625000000002 0.13437499999999858 -23.075625000000002 0.13437499999999858 -21.75 -0.8125 C-14.579912037577401 -3.2025293208075354 -6.94375487607428 -3.0684176745955085 0 0 Z M-28.375 12.6875 C-30.486235094193503 17.701683348709565 -31.163777595664513 22.66513420494735 -30.375 28.0625 C-27.81137369026486 34.115211079831084 -23.82964505391496 38.1951242951811 -18.0625 41.3125 C-11.72016949523659 43.08245269900374 -6.869645878617575 42.48474417219799 -1.19921875 39.33203125 C3.133606702848354 36.31668163078005 6.307656164318757 32.21211681220845 7.625 27.0625 C8.495461644596901 20.945742497427204 7.617390617744661 16.847415199789737 4.0546875 11.78515625 C0.6266997446021634 7.65471198734852 -3.5070074596861076 4.532218463295507 -8.85546875 3.65625 C-17.351238962949665 3.3620241917593177 -23.159514530459546 5.842175321228169 -28.375 12.6875 Z " fill="#DADADA" transform="translate(98.375,59.9375)"/>
<path d="M0 0 C4.344336422954171 0.7757743612418153 5.762017761746421 2.242786646863223 8.5 5.625 C10.362334246456584 9.349668492913167 10.071308287327923 13.569953134509362 9.5 17.625 C7.82792530336431 20.750781429158494 5.71437650335983 23.017811748320085 2.5 24.625 C-1.5420891986784966 25.17619398163798 -3.2486169788699897 24.7720353519817 -6.8125 22.6875 C-9.957373662297954 19.790254185127083 -10.422113114657549 16.9343722594937 -10.6015625 12.765625 C-10.394995783185237 8.411834199442566 -8.95658266208659 6.212034851254174 -6.3125 2.8125 C-3.5 0.625 -3.5 0.625 0 0 Z " fill="#F9F9F9" transform="translate(139.5,73.375)"/>
<path d="M0 0 C5.382750515917863 3.195378115254613 9.134703629815533 7.288365895043256 11.6484375 13.05078125 C12.683985396368172 19.456728701951988 11.38769233498445 24.781308282544984 7.6484375 30.05078125 C3.359596226792064 34.68037977505185 -0.930469763251665 36.812640980811636 -7.1640625 37.42578125 C-12.51354403840999 37.264287467708385 -17.008959642094567 35.26884066482691 -20.89453125 31.58984375 C-25.202929352238314 26.611811925126403 -26.771595568929996 22.831258686147763 -26.6015625 16.359375 C-25.795229999021146 8.91339831127344 -21.644276630196927 4.859272713991487 -16.2265625 0.23828125 C-11.012722863566509 -1.9152612085268785 -5.274947490346392 -2.1292562128806836 0 0 Z M-20.74609375 8.6953125 C-23.387754614495663 12.830491874457891 -23.962912409036363 16.24731767899995 -23.3515625 21.05078125 C-21.45828754409004 26.309878349749894 -18.753730350654763 28.84086719223089 -14.3515625 32.05078125 C-10.283765564491475 33.40671356183617 -6.604879909296585 33.58153709765581 -2.3515625 33.05078125 C2.766065675246466 30.397196270242574 5.825496921020118 27.519602986939645 7.6484375 22.05078125 C8.34841764023642 17.57249921644201 8.608564234932544 13.687053572913229 6.26171875 9.6875 C2.0707450434145755 4.714696057478889 -1.1870667650165956 2.4687335168845976 -7.6640625 1.61328125 C-13.118763123555624 2.260449120591346 -17.170713455388565 4.478967670780349 -20.74609375 8.6953125 Z " fill="#FBFBFB" transform="translate(94.3515625,64.94921875)"/>
<path d="M0 0 C2.810095193243967 1.0087521206516854 3.6669770831042285 1.3339541662084464 5 4 C5.071948685882205 6.883703330159165 5.092917080927748 9.74239663823122 5.0625 12.625 C5.0579882812500045 13.426796875 5.053476562500009 14.228593750000002 5.048828125 15.0546875 C5.037031681186761 17.03649006062414 5.019096050318524 19.018254333612596 5 21 C4.340000000000003 21 3.680000000000007 21 3 21 C3 21.659999999999997 3 22.32 3 23 C-0.08888522019270795 25.0592568134618 -0.7093592700582008 25.2390374009817 -4.1875 25.125 C-5.445625000000007 25.083749999999995 -6.703750000000014 25.042500000000004 -8 25 C-8.330000000000013 24.010000000000005 -8.659999999999997 23.019999999999996 -9 22 C-5.039999999999992 21.505000000000003 -5.039999999999992 21.505000000000003 -1 21 C-1 19.35 -1 17.700000000000003 -1 16 C-1.990000000000009 16.659999999999997 -2.9799999999999898 17.32 -4 18 C-7.539508571606973 18.451852158077486 -9.33326715160618 18.42109443056451 -12.375 16.5 C-14.615165649227492 13.053591308880797 -14.79738891528251 9.940039346101763 -14 6 C-10.196487361419372 0.04116353289033725 -6.826886243765529 -0.5542620514740335 0 0 Z " fill="#DADADA" transform="translate(175,22)"/>
<path d="M0 0 C12.894883415735826 -0.6887474821461268 12.894883415735826 -0.6887474821461268 16.75 1.875 C19 3.9999999999999964 19 3.9999999999999964 20 6 C20.04022390691864 8.332986601280993 20.043202469347378 10.66706665524136 20 13 C19.340000000000003 13 18.68 13 18 13 C18 13.66 18 14.32 18 15 C14.686289995901447 17.20914000273237 13.655397903982703 17.224815529973576 9.8125 17.125 C8.9114453125 17.106953125000004 8.010390625 17.08890625 7.08203125 17.0703125 C6.394960937500002 17.047109375000005 5.707890624999997 17.023906249999996 5 17 C5 19.310000000000002 5 21.620000000000005 5 24 C3.3500000000000014 24 1.7000000000000028 24 0 24 C-1.2152125084355667 15.88611955906099 -0.7629994396254318 8.146486324616134 0 0 Z " fill="#DBDBDB" transform="translate(32,16)"/>
<path d="M0 0 C2.5 1 2.5 1 4 2 C4 2.66 4 3.3200000000000003 4 4 C4.659999999999997 4 5.319999999999993 4 6 4 C6 8.620000000000001 6 13.240000000000002 6 18 C2 17 2 17 0 15 C-0.3299999999999983 15.494999999999997 -0.6599999999999966 15.990000000000002 -1 16.5 C-4.277663022477483 18.958247266858116 -6.976518403868781 18.383188723441066 -11 18 C-13.834050669488008 13.748923995767989 -13.754596372329758 9.988279177085126 -13 5 C-9.4190601677751 -0.5952184878514046 -6.147010881422844 -0.6830012090469815 0 0 Z " fill="#DADADA" transform="translate(70,22)"/>
<path d="M0 0 C1.2065624999999898 0.030937500000000284 1.2065624999999898 0.030937500000000284 2.4375 0.0625 C2.7675000000000125 1.3825000000000003 3.0974999999999966 2.7025000000000006 3.4375 4.0625 C3.9737499999999955 3.4025 4.509999999999991 2.7424999999999997 5.0625 2.0625 C7.4375 0.0625 7.4375 0.0625 10.4375 -0.5 C13.4375 0.0625 13.4375 0.0625 15.609375 2.171875 C17.843807761921056 5.7049524440631885 17.85472344676856 7.736219692478489 17.6875 11.875 C17.651406250000008 13.0364453125 17.615312500000016 14.197890625 17.578125 15.39453125 C17.508515625 16.715175781249997 17.508515625 16.715175781249997 17.4375 18.0625 C15.5625 18.6875 15.5625 18.6875 13.4375 19.0625 C10.756573091766427 16.381573091766427 11.050797427766412 14.670826368340265 10.8125 10.9375 C10.700351562500003 9.2939453125 10.700351562500003 9.2939453125 10.5859375 7.6171875 C10.536953124999997 6.774140625000001 10.487968749999993 5.931093749999999 10.4375 5.0625 C9.117500000000007 4.732500000000002 7.797500000000014 4.4025 6.4375 4.0625 C6.169375000000002 5.073125000000001 5.9012500000000045 6.083750000000002 5.625 7.125 C4.543984399916781 10.935774417559536 3.0588766178599656 14.451252078402817 1.4375 18.0625 C-0.21250000000000568 18.0625 -1.8625000000000114 18.0625 -3.5625 18.0625 C-3.589343123337585 15.249937188073034 -3.6092618759962534 12.437627589813502 -3.625 9.625 C-3.6333789062499875 8.82255859375 -3.6417578125000034 8.020117187499999 -3.650390625 7.193359375 C-3.6590143025707107 5.149547790738467 -3.6147814990668508 3.1056609835330633 -3.5625 1.0625 C-2.5625 0.0625 -2.5625 0.0625 0 0 Z " fill="#DCDCDC" transform="translate(137.5625,21.9375)"/>
<path d="M0 0 C1.3199999999999932 0 2.6400000000000006 0 4 0 C4.329999999999998 3.960000000000001 4.659999999999997 7.920000000000002 5 12 C6.319999999999993 12.329999999999998 7.640000000000001 12.659999999999997 9 13 C12.332478177922283 6.800091796020304 12.332478177922283 6.800091796020304 14 0 C15.650000000000006 0 17.299999999999997 0 19 0 C19 5.940000000000001 19 11.880000000000003 19 18 C17.349999999999994 17.67 15.700000000000003 17.340000000000003 14 17 C13.670000000000002 16.340000000000003 13.340000000000003 15.68 13 15 C12.319375000000008 15.515625 11.638750000000002 16.03125 10.9375 16.5625 C7.139578937211624 18.42105711583261 5.038650320202478 18.066813292128955 1 17 C-1.4050335318411982 13.392449702238203 -1.2396540989217613 11.651636111583862 -1.1875 7.375 C-1.1810546874999943 6.207109375000002 -1.1746093750000028 5.03921875 -1.16796875 3.8359375 C-1 1 -1 1 0 0 Z " fill="#DADADA" transform="translate(107,22)"/>
<path d="M0 0 C2.25 0 2.25 0 5 1 C6.69592189412235 3.5122639584117543 7.817956556787138 6.217810410953145 9 9 C9.658337853722685 10.337465323878725 10.322612259218118 11.672081301110403 11 13 C12.671100419267546 10.038212265038005 13.3268275221982 7.6292880817537885 13.625 4.25 C13.699765624999998 3.4507812499999986 13.774531249999995 2.6515625000000007 13.8515625 1.828125 C13.900546875000003 1.2248437500000016 13.949531250000007 0.6215624999999996 14 0 C15.319999999999993 0.3299999999999983 16.64 0.6600000000000001 18 1 C18.70289100156438 5.6761776354075195 18.97036123928976 9.451199579138486 16.39453125 13.5625 C12.968077794456548 17.471099814203413 9.652801753791508 20.602191018643794 5 23 C4.010000000000005 23 3.019999999999996 23 2 23 C3 20 3 20 6 18 C4.979017523602366 14.511643205641406 3.7782234976902203 11.515052889882064 1.875 8.4375 C0.07021048144449082 5.128719215981558 -0.4432132813663259 3.6565095712721423 0 0 Z " fill="#DBDBDB" transform="translate(81,22)"/>
<path d="M0 0 C2.375 1.125 2.375 1.125 4 3 C4.456049394527582 6.127195848189189 4.691828851438203 8.055387529767074 2.78125 10.6640625 C0.4388814928523743 12.42083888036072 -1.032397133163954 12.401211454437615 -3.9375 12.375 C-5.219472656249991 12.386601562500005 -5.219472656249991 12.386601562500005 -6.52734375 12.3984375 C-9.422512602342266 11.931917400570441 -10.819479534441825 10.912382218053324 -13 9 C-12.140770788295299 5.484971406662623 -11.57032229738627 3.4752685811552197 -8.75 1.125 C-5.527453617389341 -0.19331442924982412 -3.451722563581825 -0.44064543364874 0 0 Z " fill="#F5F5F5" transform="translate(193,73)"/>
<path d="M0 0 C3.375 -0.125 3.375 -0.125 7 0 C9 2 9 2 9.25 5 C9 8 9 8 7 10 C3.375000000000007 10.125 3.375000000000007 10.125 0 10 C0 6.699999999999999 0 3.3999999999999986 0 0 Z " fill="#FAFAFA" transform="translate(37,20)"/>
<path d="M0 0 C0.25 2.25 0.25 2.25 0 5 C-2 7.3125 -2 7.3125 -4 9 C-2.6910428006675318 12.12197477633255 -2.6910428006675318 12.12197477633255 0 14 C0 15.650000000000006 0 17.299999999999997 0 19 C-3.9888237596667295 17.46583701551279 -7.647833815404354 14.575292600585385 -10 11 C-9.881685688432924 8.171724552063168 -9.132358651828085 7.1403458118522 -7.1875 5.078125 C-6.465625000000003 4.474843750000005 -5.743750000000006 3.871562499999996 -5 3.25 C-4.278125000000003 2.636406249999993 -3.5562500000000057 2.0228125000000006 -2.8125 1.390625 C-1 0 -1 0 0 0 Z " fill="#FAFAFA" transform="translate(85,73)"/>
<path d="M0 0 C1.10551889817134 0.9359050398217761 2.2093545339677405 1.8737985785936786 3.3125 2.8125 C3.9273828124999994 3.3345703125000057 4.542265624999999 3.856640624999997 5.17578125 4.39453125 C6.854246793226295 5.871724693824419 8.438820343486029 7.400391305787224 10 9 C8.574191395719964 12.45195767352007 6.902536660454999 14.101425595806134 3.875 16.25 C3.1505468750000034 16.77078125 2.426093750000007 17.291562499999998 1.6796875 17.828125 C1.1253906249999943 18.21484375 0.5710937500000028 18.6015625 0 19 C-0.171875 14.2265625 -0.171875 14.2265625 1.375 12.1875 C3 11 3 11 5 11 C4.174999999999997 10.113124999999997 3.3499999999999943 9.226249999999993 2.5 8.3125 C0.5390052419484732 5.986925934817762 0.027405223530365674 5.252128056479378 -0.3125 2.125 C-0.20937499999999432 1.4237499999999983 -0.10625000000000284 0.7224999999999966 0 0 Z " fill="#FBFBFB" transform="translate(89,73)"/>
<path d="M0 0 C1 1 1 1 1.3125 3.25 C0.9064532622793706 6.823211291941497 -0.6136745118041347 8.389956497285766 -3 11 C-6.875 10.125 -6.875 10.125 -8 9 C-8.458752515090538 3.724346076458751 -8.458752515090538 3.724346076458751 -6.8125 1.125 C-4.414098249542832 -0.3636631554561731 -2.7719392882623595 -0.29178308297498745 0 0 Z " fill="#F7F7F7" transform="translate(174,26)"/>
<path d="M0 0 C0.948750000000004 0.04125000000000156 1.8974999999999937 0.08249999999999957 2.875 0.125 C3.625 1.6875 3.625 1.6875 3.875 4.125 C2.744155626868036 6.627864086505326 1.3536048429442502 8.795077217178758 -0.125 11.125 C-4 10.25 -4 10.25 -5.125 9.125 C-5.3125 5.6875 -5.3125 5.6875 -5.125 2.125 C-3.125 0.125 -3.125 0.125 0 0 Z " fill="#F7F7F7" transform="translate(67.125,25.875)"/>
<path d="M0 0 C1.4850000000000136 0.990000000000002 1.4850000000000136 0.990000000000002 3 2 C6.9604794595315695 2.3370620816622605 9.596771262363944 2.0942946077760425 13 0 C12.669999999999987 1.9799999999999969 12.340000000000003 3.960000000000001 12 6 C10.680000000000007 6.329999999999998 9.360000000000014 6.659999999999997 8 7 C8 6.340000000000003 8 5.68 8 5 C7.05125000000001 4.855625000000003 6.102499999999992 4.71125 5.125 4.5625 C2 4 2 4 0 3 C0 2.009999999999998 0 1.0200000000000031 0 0 Z " fill="#F2F2F2" transform="translate(162,37)"/>
<path d="M0 0 C0 3 0 3 -1.57421875 4.82421875 C-2.2716015624999955 5.439101562499999 -2.968984375000005 6.053984374999999 -3.6875 6.6875 C-4.371992187499998 7.310117187499998 -5.056484374999997 7.932734375000003 -5.76171875 8.57421875 C-8.399055800131805 10.254197848251493 -9.931209953739469 10.284843909722959 -13 10 C-12.010000000000005 9.340000000000003 -11.019999999999996 8.68 -10 8 C-8.639522644314297 7.008602639817148 -7.285714301910048 6.008010693016857 -5.9375 5 C-5.245273437500003 4.484375 -4.553046875000007 3.96875 -3.83984375 3.4375 C-1.9036960629197637 1.9849296688485367 -1.9036960629197637 1.9849296688485367 0 0 Z " fill="#EEEEEE" transform="translate(96,36)"/>
<path d="M0 0 C3.299999999999997 0 6.600000000000001 0 10 0 C9.670000000000002 0.6599999999999966 9.340000000000003 1.3200000000000003 9 2 C6.673914300841183 2.3806322053169 4.339447359494798 2.7126994470795864 2 3 C1.009999999999998 3.4949999999999974 1.009999999999998 3.4949999999999974 0 4 C0 2.6799999999999997 0 1.3599999999999994 0 0 Z " fill="#EEEEEE" transform="translate(37,33)"/>
</svg>
