<?xml version="1.0" encoding="UTF-8" standalone="no"?>
<svg
   width="256px"
   height="255px"
   viewBox="0 0 256 255"
   version="1.1"
   preserveAspectRatio="xMidYMid"
   id="svg20"
   sodipodi:docname="python.svg"
   inkscape:version="1.1.2 (08b2f3d93c, 2022-04-05)"
   xmlns:inkscape="http://www.inkscape.org/namespaces/inkscape"
   xmlns:sodipodi="http://sodipodi.sourceforge.net/DTD/sodipodi-0.dtd"
   xmlns="http://www.w3.org/2000/svg"
   xmlns:svg="http://www.w3.org/2000/svg">
  <sodipodi:namedview
     id="namedview22"
     pagecolor="#ffffff"
     bordercolor="#999999"
     borderopacity="1"
     inkscape:pageshadow="0"
     inkscape:pageopacity="0"
     inkscape:pagecheckerboard="0"
     showgrid="false"
     inkscape:lockguides="false"
     inkscape:zoom="1.9937638"
     inkscape:cx="134.66991"
     inkscape:cy="136.92695"
     inkscape:window-width="1920"
     inkscape:window-height="1015"
     inkscape:window-x="0"
     inkscape:window-y="0"
     inkscape:window-maximized="1"
     inkscape:current-layer="svg20" />
  <defs
     id="defs12">
    <linearGradient
       x1="24.714942"
       y1="22.898218"
       x2="151.13554"
       y2="148.33669"
       id="linearGradient-1"
       gradientTransform="scale(0.9988868,1.0011144)"
       gradientUnits="userSpaceOnUse">
      <stop
         stop-color="#387EB8"
         offset="0%"
         id="stop2" />
      <stop
         stop-color="#366994"
         offset="100%"
         id="stop4" />
    </linearGradient>
    <linearGradient
       x1="102.48344"
       y1="103.26587"
       x2="238.25965"
       y2="231.90547"
       id="linearGradient-2"
       gradientTransform="scale(0.99888677,1.0011145)"
       gradientUnits="userSpaceOnUse">
      <stop
         stop-color="#FFE052"
         offset="0%"
         id="stop7" />
      <stop
         stop-color="#FFC331"
         offset="100%"
         id="stop9" />
    </linearGradient>
  </defs>
  <g
     id="g18"
     transform="matrix(0.74524608,0,0,0.74524608,32.566845,32.379038)">
    <path
       d="M 126.91587,0.07227555 C 62.083583,0.07228017 66.132129,28.187465 66.132129,28.187465 l 0.07227,29.127047 h 61.867876 v 8.745341 H 41.630717 c 0,0 -41.4861659,-4.704909 -41.4861659,60.711467 -4.63e-6,65.41635 36.2100509,63.09655 36.2100509,63.09655 h 21.610389 v -30.35573 c 0,0 -1.164855,-36.21005 35.631847,-36.21005 h 61.361942 c 0,0 34.47544,0.5573 34.47544,-33.31903 V 33.969509 c 0,-5e-6 5.23432,-33.89723345 -62.51835,-33.89723345 v 0 z M 92.801807,19.65895 c 6.1554,-5e-6 11.130433,4.975035 11.130433,11.130434 1e-5,6.1554 -4.975033,11.130435 -11.130433,11.130435 -6.1554,5e-6 -11.130435,-4.975035 -11.130435,-11.130435 -5e-6,-6.155399 4.975035,-11.130434 11.130435,-11.130434 v 0 z"
       fill="url(#linearGradient-1)"
       id="path14"
       style="fill:url(#linearGradient-1)" />
    <path
       d="m 128.7571,254.12627 c 64.8323,0 60.78374,-28.11519 60.78374,-28.11519 l -0.0723,-29.12705 h -61.86787 v -8.74534 h 86.44156 c 0,0 41.48617,4.7049 41.48617,-60.71148 2e-5,-65.416353 -36.21005,-63.096551 -36.21005,-63.096551 h -21.61039 v 30.355724 c 0,0 1.16487,36.210047 -35.63185,36.210047 h -61.36195 c 0,0 -34.475435,-0.55729 -34.475435,33.31906 v 56.01355 c 0,0 -5.234323,33.89723 62.518355,33.89723 v 0 z m 34.11406,-19.58667 c -6.1554,0 -11.13043,-4.97504 -11.13043,-11.13044 0,-6.1554 4.97503,-11.13043 11.13043,-11.13043 6.1554,0 11.13043,4.97503 11.13043,11.13043 3e-5,6.1554 -4.97503,11.13044 -11.13043,11.13044 v 0 z"
       fill="url(#linearGradient-2)"
       id="path16"
       style="fill:url(#linearGradient-2)" />
  </g>
</svg>
