<?xml version="1.0" encoding="UTF-8"?>
<!DOCTYPE svg PUBLIC "-//W3C//DTD SVG 1.1//EN" "http://www.w3.org/Graphics/SVG/1.1/DTD/svg11.dtd">
<svg xmlns="http://www.w3.org/2000/svg" version="1.1" width="512px" height="512px" style="shape-rendering:geometricPrecision; text-rendering:geometricPrecision; image-rendering:optimizeQuality; fill-rule:evenodd; clip-rule:evenodd" xmlns:xlink="http://www.w3.org/1999/xlink">
<g><path style="opacity:0.562" fill="#eef3f4" d="M 478.5,149.5 C 477.571,150.936 476.405,152.269 475,153.5C 474.907,157.248 474.74,160.914 474.5,164.5C 476.559,168.166 478.893,171.666 481.5,175C 481.167,175.333 480.833,175.667 480.5,176C 482.02,178.596 482.853,181.429 483,184.5C 483.333,184.167 483.667,183.833 484,183.5C 486.062,187.212 486.562,191.045 485.5,195C 486.65,202.893 488.317,210.727 490.5,218.5C 489.583,223.502 489.583,228.335 490.5,233C 491.022,233.95 491.689,234.784 492.5,235.5C 492.725,238.373 492.391,241.373 491.5,244.5C 490.448,244.649 489.448,244.483 488.5,244C 487.743,242.488 486.743,241.154 485.5,240C 486.116,238.6 486.449,237.1 486.5,235.5C 485.497,226.818 484.497,218.151 483.5,209.5C 481.856,209.714 480.356,209.38 479,208.5C 476.465,212.897 473.131,213.563 469,210.5C 467.352,211.717 465.519,212.55 463.5,213C 465.599,215.409 467.266,218.076 468.5,221C 470.027,222.368 471.527,222.868 473,222.5C 474.974,219.882 476.807,220.048 478.5,223C 479.097,225.897 479.097,228.564 478.5,231C 481.842,232.42 482.509,234.253 480.5,236.5C 481.04,237.748 481.707,238.915 482.5,240C 480.109,240.287 477.776,240.787 475.5,241.5C 470.411,241.39 465.578,241.057 461,240.5C 459.045,241.453 457.378,242.787 456,244.5C 455.333,243.833 454.667,243.167 454,242.5C 453.41,228.728 450.744,215.394 446,202.5C 445.709,204.783 446.209,206.95 447.5,209C 447.167,210 446.833,211 446.5,212C 447.864,215.35 449.198,218.683 450.5,222C 449.594,223.699 449.261,225.533 449.5,227.5C 447.784,227.629 446.117,227.962 444.5,228.5C 442.872,220.039 441.038,211.706 439,203.5C 436.173,195.88 433.173,188.213 430,180.5C 429.505,178.527 429.338,176.527 429.5,174.5C 428.5,174.5 427.5,174.5 426.5,174.5C 425.322,168.867 423.655,163.534 421.5,158.5C 420.5,158.5 419.5,158.5 418.5,158.5C 417.36,155.975 416.693,153.308 416.5,150.5C 413.637,149.647 411.304,147.98 409.5,145.5C 408.548,143.955 408.215,142.288 408.5,140.5C 407.5,140.5 406.5,140.5 405.5,140.5C 404.36,137.975 403.693,135.308 403.5,132.5C 399.167,131.5 396.5,128.833 395.5,124.5C 392.5,124.167 390.833,122.5 390.5,119.5C 389.325,119.719 388.325,119.386 387.5,118.5C 385.02,116.696 383.353,114.363 382.5,111.5C 378.725,110.022 375.058,108.355 371.5,106.5C 371.5,105.5 371.5,104.5 371.5,103.5C 366.803,102.651 362.803,100.484 359.5,97C 358.552,96.5172 357.552,96.3505 356.5,96.5C 356.5,95.5 356.5,94.5 356.5,93.5C 354.833,93.5 353.167,93.5 351.5,93.5C 351.5,92.5 351.5,91.5 351.5,90.5C 348.996,89.3608 346.33,88.6941 343.5,88.5C 343.5,87.5 343.5,86.5 343.5,85.5C 341.396,85.7989 339.396,85.4656 337.5,84.5C 331.034,81.6747 324.701,78.8414 318.5,76C 307.458,73.6576 296.458,70.9909 285.5,68C 265.474,66.0526 245.474,66.2193 225.5,68.5C 217.241,70.4071 208.908,71.9071 200.5,73C 195.279,74.8273 190.279,77.1607 185.5,80C 179.791,82.4327 173.791,84.266 167.5,85.5C 167.5,86.5 167.5,87.5 167.5,88.5C 164.692,88.6933 162.025,89.36 159.5,90.5C 159.5,91.5 159.5,92.5 159.5,93.5C 157.833,93.5 156.167,93.5 154.5,93.5C 154.719,94.675 154.386,95.675 153.5,96.5C 148.944,99.2623 144.611,102.429 140.5,106C 139.207,106.49 137.873,106.657 136.5,106.5C 134.833,109.167 133.167,111.833 131.5,114.5C 128.833,116.167 126.167,117.833 123.5,119.5C 123.5,120.5 123.5,121.5 123.5,122.5C 120.5,122.833 118.833,124.5 118.5,127.5C 115.833,129.167 113.167,130.833 110.5,132.5C 110.5,133.5 110.5,134.5 110.5,135.5C 108.821,135.285 107.821,135.952 107.5,137.5C 105.589,137.574 104.422,138.574 104,140.5C 102.416,139.139 100.582,138.472 98.5,138.5C 98.6567,137.127 98.49,135.793 98,134.5C 96.7012,134.966 95.2012,134.966 93.5,134.5C 93.6567,135.873 93.49,137.207 93,138.5C 89.3015,140.364 87.4682,143.364 87.5,147.5C 84.7081,147.452 82.8747,148.785 82,151.5C 81.6667,151.167 81.3333,150.833 81,150.5C 80,152.5 79,154.5 78,156.5C 76.0043,153.994 74.1709,151.327 72.5,148.5C 71.5745,147.359 70.7412,147.359 70,148.5C 69.6667,147.5 69.3333,146.5 69,145.5C 68.5814,146.672 67.9147,147.672 67,148.5C 67.6421,144.641 66.4754,143.974 63.5,146.5C 62.8333,146.333 62.1667,146.167 61.5,146C 60.6705,144.184 59.8372,142.351 59,140.5C 58.3333,143.167 57.6667,143.167 57,140.5C 54.1726,142.254 54.0059,144.088 56.5,146C 53.7431,146.782 51.2431,146.282 49,144.5C 48.1475,146.125 47.1475,146.458 46,145.5C 45.3333,146.167 44.6667,146.833 44,147.5C 40.7551,160.048 36.2551,172.381 30.5,184.5C 28.8273,186.086 26.8273,186.753 24.5,186.5C 24.6495,187.552 24.4828,188.552 24,189.5C 22.4435,188.795 21.2768,189.461 20.5,191.5C 20.8333,191.833 21.1667,192.167 21.5,192.5C 22.8415,190.995 24.5082,190.328 26.5,190.5C 26.5958,194.311 27.2624,194.311 28.5,190.5C 29.7678,189.572 31.1011,189.405 32.5,190C 33.2326,191.535 33.2326,193.368 32.5,195.5C 33.1667,195.833 33.8333,196.167 34.5,196.5C 34.1924,197.308 33.6924,197.975 33,198.5C 32.1072,197.289 31.2739,197.289 30.5,198.5C 32.4258,202.604 34.0924,206.77 35.5,211C 35.1667,211.333 34.8333,211.667 34.5,212C 35.7433,213.154 36.7433,214.488 37.5,216C 35.0087,216.626 35.0087,217.459 37.5,218.5C 35.458,219.503 35.1246,220.837 36.5,222.5C 34.8188,224.992 34.1521,227.492 34.5,230C 33.3774,231.044 32.0441,231.71 30.5,232C 32.0806,232.707 33.5806,233.54 35,234.5C 36.016,233.366 36.6827,233.699 37,235.5C 40.4723,231.311 43.3056,231.811 45.5,237C 41.7887,239.775 38.2887,239.275 35,235.5C 33.3333,235.833 31.6667,236.167 30,236.5C 29.6905,235.234 29.1905,234.067 28.5,233C 29.4837,226.476 29.4837,219.643 28.5,212.5C 31.1488,209.264 30.9821,206.264 28,203.5C 27.1667,204.333 26.3333,205.167 25.5,206C 26.8333,207 26.8333,208 25.5,209C 26.5,209.333 27.5,209.667 28.5,210C 27.7178,212.74 27.2178,215.574 27,218.5C 26.6667,216.833 26.3333,215.167 26,213.5C 25.5,214 25,214.5 24.5,215C 23.5533,217.478 23.5533,219.812 24.5,222C 22.8542,223.555 22.5209,225.221 23.5,227C 22.5399,228.419 21.7065,229.919 21,231.5C 19.8284,235.194 19.1617,238.86 19,242.5C 18.0857,240.336 16.919,238.336 15.5,236.5C 17.162,235.673 18.4954,234.507 19.5,233C 17.3386,232.415 15.3386,231.582 13.5,230.5C 13.334,225.156 13.5006,219.823 14,214.5C 15.8874,210.4 16.8874,206.067 17,201.5C 17.414,201.043 17.914,200.709 18.5,200.5C 19.22,193.669 20.3867,187.003 22,180.5C 22.414,180.043 22.914,179.709 23.5,179.5C 25.701,173.564 27.701,167.564 29.5,161.5C 30.5,161.5 31.5,161.5 32.5,161.5C 33.8579,155.4 35.5246,149.4 37.5,143.5C 38.5,143.5 39.5,143.5 40.5,143.5C 40.6941,140.67 41.3608,138.004 42.5,135.5C 43.5,135.5 44.5,135.5 45.5,135.5C 45.7837,132.368 46.617,129.368 48,126.5C 49.2568,124.254 51.0901,122.921 53.5,122.5C 53.6933,119.692 54.36,117.025 55.5,114.5C 56.5,114.5 57.5,114.5 58.5,114.5C 59.2943,112.127 60.2943,109.794 61.5,107.5C 62.7277,105.679 64.3944,104.679 66.5,104.5C 67.8938,99.0978 70.8938,94.7644 75.5,91.5C 76.3857,90.675 76.719,89.675 76.5,88.5C 77.5,88.5 78.5,88.5 79.5,88.5C 79.8333,85.5 81.5,83.8333 84.5,83.5C 84.5,82.5 84.5,81.5 84.5,80.5C 85.5,80.5 86.5,80.5 87.5,80.5C 87.8333,77.5 89.5,75.8333 92.5,75.5C 92.8333,72.5 94.5,70.8333 97.5,70.5C 97.5,69.5 97.5,68.5 97.5,67.5C 104.138,64.7015 109.804,60.5348 114.5,55C 115.793,54.51 117.127,54.3433 118.5,54.5C 118.5,53.5 118.5,52.5 118.5,51.5C 121.025,50.36 123.692,49.6933 126.5,49.5C 126.5,48.5 126.5,47.5 126.5,46.5C 128.167,46.5 129.833,46.5 131.5,46.5C 131.5,45.5 131.5,44.5 131.5,43.5C 137.163,40.3749 143.163,37.8749 149.5,36C 152.075,34.2132 154.741,32.5466 157.5,31C 161.065,29.6431 164.732,28.8098 168.5,28.5C 168.5,27.5 168.5,26.5 168.5,25.5C 172.631,24.0994 176.964,23.4327 181.5,23.5C 181.5,22.5 181.5,21.5 181.5,20.5C 198.945,17.0523 216.278,13.5523 233.5,10C 250.5,9.33333 267.5,9.33333 284.5,10C 298.496,12.6577 312.496,15.3244 326.5,18C 329.5,19.6667 332.5,21.3333 335.5,23C 339.833,24 344.167,25 348.5,26C 354.344,29.1137 360.344,31.6137 366.5,33.5C 366.5,34.5 366.5,35.5 366.5,36.5C 369.632,36.7837 372.632,37.617 375.5,39C 378.738,42.7824 382.738,45.2824 387.5,46.5C 387.5,47.5 387.5,48.5 387.5,49.5C 389.288,49.2148 390.955,49.5481 392.5,50.5C 396.681,53.221 400.681,56.221 404.5,59.5C 405.386,60.325 405.719,61.325 405.5,62.5C 410.859,63.8345 415.193,66.8345 418.5,71.5C 419.325,72.3857 420.325,72.719 421.5,72.5C 421.833,75.5 423.5,77.1667 426.5,77.5C 426.5,78.5 426.5,79.5 426.5,80.5C 427.5,80.5 428.5,80.5 429.5,80.5C 429.833,83.5 431.5,85.1667 434.5,85.5C 438.32,90.4607 441.653,95.7941 444.5,101.5C 445.5,101.5 446.5,101.5 447.5,101.5C 447.5,102.5 447.5,103.5 447.5,104.5C 451.322,105.18 452.989,107.513 452.5,111.5C 453.5,111.5 454.5,111.5 455.5,111.5C 456.167,113.5 456.833,115.5 457.5,117.5C 458.5,117.5 459.5,117.5 460.5,117.5C 460.5,119.167 460.5,120.833 460.5,122.5C 462.143,122.48 463.476,123.147 464.5,124.5C 465.339,127.674 467.005,130.341 469.5,132.5C 471.019,136.192 472.352,139.859 473.5,143.5C 474.5,143.5 475.5,143.5 476.5,143.5C 476.259,145.886 476.925,147.886 478.5,149.5 Z"/></g>
<g><path style="opacity:0.004" fill="#fefffe" d="M 462.5,19.5 C 464.337,19.6395 464.67,20.3061 463.5,21.5C 462.702,21.0431 462.369,20.3764 462.5,19.5 Z"/></g>
<g><path style="opacity:0.004" fill="#fefffe" d="M 31.5,55.5 C 33.7602,56.2376 33.9269,57.2376 32,58.5C 30.2716,57.6477 30.105,56.6477 31.5,55.5 Z"/></g>
<g><path style="opacity:0.004" fill="#fefffe" d="M 39.5,71.5 C 42.1368,73.1538 41.8034,73.6538 38.5,73C 39.056,72.6174 39.3893,72.1174 39.5,71.5 Z"/></g>
<g><path style="opacity:0.99" fill="#f1f3f4" d="M 142.5,124.5 C 149.346,124.681 156.013,125.681 162.5,127.5C 162.5,128.5 162.5,129.5 162.5,130.5C 171.735,130.465 179.735,133.465 186.5,139.5C 191.314,141.806 196.314,143.806 201.5,145.5C 201.5,146.5 201.5,147.5 201.5,148.5C 205.616,150.684 209.949,152.351 214.5,153.5C 214.5,154.5 214.5,155.5 214.5,156.5C 228.171,156.667 241.837,156.5 255.5,156C 258.167,154 260.833,154 263.5,156C 273.5,156.333 283.5,156.667 293.5,157C 294.263,157.944 295.263,158.444 296.5,158.5C 301.187,157.161 305.521,155.161 309.5,152.5C 310.853,151.476 311.52,150.143 311.5,148.5C 317.01,147.037 322.01,144.537 326.5,141C 332.785,138.694 338.785,136.028 344.5,133C 348.987,131.377 353.653,130.544 358.5,130.5C 358.5,129.5 358.5,128.5 358.5,127.5C 364.232,125.266 370.232,124.266 376.5,124.5C 376.5,125.5 376.5,126.5 376.5,127.5C 377.5,127.5 378.5,127.5 379.5,127.5C 381.92,135.315 383.92,143.315 385.5,151.5C 386.086,151.709 386.586,152.043 387,152.5C 388.975,167.655 389.975,182.988 390,198.5C 393.341,203.853 396.674,209.186 400,214.5C 408.475,232.695 411.975,252.028 410.5,272.5C 410.674,285.999 410.007,299.332 408.5,312.5C 407.5,312.5 406.5,312.5 405.5,312.5C 405.228,321.544 402.228,329.544 396.5,336.5C 395.548,338.045 395.215,339.712 395.5,341.5C 394.5,341.5 393.5,341.5 392.5,341.5C 392.649,342.552 392.483,343.552 392,344.5C 388.799,348.942 385.632,353.276 382.5,357.5C 380.5,358.167 378.5,358.833 376.5,359.5C 376.5,360.5 376.5,361.5 376.5,362.5C 373.181,364.142 369.847,365.809 366.5,367.5C 366.5,368.5 366.5,369.5 366.5,370.5C 364.712,370.215 363.045,370.548 361.5,371.5C 351.179,378.189 340.179,383.023 328.5,386C 322.327,386.044 316.327,386.711 310.5,388C 276.167,388.667 241.833,388.667 207.5,388C 197.737,386.962 188.07,385.462 178.5,383.5C 178.5,382.5 178.5,381.5 178.5,380.5C 174.077,380.31 169.744,379.643 165.5,378.5C 165.5,377.5 165.5,376.5 165.5,375.5C 160.92,374.419 156.586,372.752 152.5,370.5C 152.5,369.5 152.5,368.5 152.5,367.5C 150.712,367.785 149.045,367.452 147.5,366.5C 145.867,364.497 143.867,363.164 141.5,362.5C 141.167,359.5 139.5,357.833 136.5,357.5C 136.167,354.5 134.5,352.833 131.5,352.5C 131.5,351.5 131.5,350.5 131.5,349.5C 130.5,349.5 129.5,349.5 128.5,349.5C 127.36,346.975 126.693,344.308 126.5,341.5C 125.5,341.5 124.5,341.5 123.5,341.5C 121.263,336.412 118.763,331.412 116,326.5C 114.525,321.936 113.692,317.27 113.5,312.5C 112.5,312.5 111.5,312.5 110.5,312.5C 110.884,307.872 110.05,303.539 108,299.5C 107.798,288.564 106.965,277.73 105.5,267C 106.859,258.661 107.693,250.161 108,241.5C 110.602,234.199 113.269,226.866 116,219.5C 119.602,213.014 123.436,206.681 127.5,200.5C 128.332,189.181 128.832,177.848 129,166.5C 129.419,165.328 130.085,164.328 131,163.5C 131.333,159.5 131.667,155.5 132,151.5C 134.238,145.051 135.905,138.384 137,131.5C 139.202,129.445 141.036,127.112 142.5,124.5 Z M 188.5,255.5 C 199.995,254.855 211.328,255.688 222.5,258C 246.167,258.667 269.833,258.667 293.5,258C 305.632,255.328 317.966,254.828 330.5,256.5C 335.46,258.043 340.46,259.377 345.5,260.5C 345.5,261.5 345.5,262.5 345.5,263.5C 346.675,263.281 347.675,263.614 348.5,264.5C 350.656,266.629 352.323,268.962 353.5,271.5C 357.322,272.18 358.989,274.513 358.5,278.5C 359.5,278.5 360.5,278.5 361.5,278.5C 361.893,283.145 363.226,287.478 365.5,291.5C 366.833,302.167 366.833,312.833 365.5,323.5C 364.914,323.709 364.414,324.043 364,324.5C 363.202,328.535 362.369,332.535 361.5,336.5C 360.5,336.5 359.5,336.5 358.5,336.5C 358.307,339.308 357.64,341.975 356.5,344.5C 352.167,345.5 349.5,348.167 348.5,352.5C 344.364,352.903 340.697,354.403 337.5,357C 335.866,357.494 334.199,357.66 332.5,357.5C 332.5,358.5 332.5,359.5 332.5,360.5C 326.863,361.393 321.196,362.226 315.5,363C 315.043,363.414 314.709,363.914 314.5,364.5C 278.126,368.287 241.792,368.454 205.5,365C 205.043,364.586 204.709,364.086 204.5,363.5C 198.394,362.632 192.394,361.299 186.5,359.5C 181.536,356.475 176.536,353.308 171.5,350C 170.207,349.51 168.873,349.343 167.5,349.5C 166.999,346.822 165.499,344.822 163,343.5C 162.144,341.132 161.31,338.798 160.5,336.5C 159.5,336.5 158.5,336.5 157.5,336.5C 157.663,334.143 157.497,331.81 157,329.5C 155.08,326.799 153.747,323.799 153,320.5C 152.333,310.833 152.333,301.167 153,291.5C 154.062,288.971 154.895,286.304 155.5,283.5C 158.991,277.192 162.991,271.192 167.5,265.5C 169.5,264.833 171.5,264.167 173.5,263.5C 173.5,262.5 173.5,261.5 173.5,260.5C 177.465,259.631 181.465,258.798 185.5,258C 187.119,257.764 188.119,256.931 188.5,255.5 Z"/></g>
<g><path style="opacity:0.948" fill="#f2f3f5" d="M 198.5,276.5 C 203.844,276.334 209.177,276.501 214.5,277C 216.135,278.748 218.135,279.915 220.5,280.5C 221.853,281.524 222.52,282.857 222.5,284.5C 223.5,284.5 224.5,284.5 225.5,284.5C 227.257,287.684 228.757,291.017 230,294.5C 230.832,304.184 230.665,313.851 229.5,323.5C 227.394,326.541 226.06,329.875 225.5,333.5C 224.5,333.5 223.5,333.5 222.5,333.5C 222.5,334.5 222.5,335.5 222.5,336.5C 215.722,340.398 208.389,341.898 200.5,341C 197.178,339.94 194.178,338.44 191.5,336.5C 191.5,335.5 191.5,334.5 191.5,333.5C 190.5,333.5 189.5,333.5 188.5,333.5C 187.425,330.239 186.425,326.905 185.5,323.5C 184.914,323.291 184.414,322.957 184,322.5C 182.408,313.06 182.575,303.726 184.5,294.5C 185.086,294.291 185.586,293.957 186,293.5C 186.544,290.375 187.377,287.375 188.5,284.5C 189.5,284.5 190.5,284.5 191.5,284.5C 191.5,283.5 191.5,282.5 191.5,281.5C 194.607,280.874 196.94,279.208 198.5,276.5 Z"/></g>
<g><path style="opacity:0.957" fill="#f2f3f4" d="M 302.5,276.5 C 308.833,276.5 315.167,276.5 321.5,276.5C 321.5,277.5 321.5,278.5 321.5,279.5C 323.5,280.167 325.5,280.833 327.5,281.5C 330.616,285.793 333.116,290.46 335,295.5C 335.667,304.167 335.667,312.833 335,321.5C 333.175,323.48 332.341,325.813 332.5,328.5C 331.5,328.5 330.5,328.5 329.5,328.5C 329.144,333.694 326.477,337.194 321.5,339C 314.008,342.42 306.675,342.254 299.5,338.5C 297.679,337.272 296.679,335.606 296.5,333.5C 295.5,333.5 294.5,333.5 293.5,333.5C 293.5,331.833 293.5,330.167 293.5,328.5C 292.5,328.5 291.5,328.5 290.5,328.5C 289.352,321.206 288.019,313.872 286.5,306.5C 287.978,302.018 288.978,297.351 289.5,292.5C 289.968,288.91 291.468,285.91 294,283.5C 296.825,280.971 299.658,278.638 302.5,276.5 Z"/></g>
<g><path style="opacity:0.004" fill="#fefffe" d="M 261.5,337.5 C 263.76,338.238 263.927,339.238 262,340.5C 260.272,339.648 260.105,338.648 261.5,337.5 Z"/></g>
<g><path style="opacity:0.62" fill="#eff4f5" d="M 107.5,137.5 C 104.94,141.31 102.606,145.31 100.5,149.5C 99.675,150.386 98.675,150.719 97.5,150.5C 97.6602,152.199 97.4935,153.866 97,155.5C 95.2552,158.77 93.0885,161.77 90.5,164.5C 89.5481,166.045 89.2148,167.712 89.5,169.5C 88.5,169.5 87.5,169.5 86.5,169.5C 85.8333,172.833 85.1667,176.167 84.5,179.5C 83.5,179.5 82.5,179.5 81.5,179.5C 81.484,185.282 79.984,190.615 77,195.5C 76.6667,197.833 76.3333,200.167 76,202.5C 75.586,202.957 75.086,203.291 74.5,203.5C 73.942,207.977 73.1087,212.311 72,216.5C 71.6667,221.167 71.3333,225.833 71,230.5C 70.586,230.957 70.086,231.291 69.5,231.5C 68.1667,247.5 68.1667,263.5 69.5,279.5C 70.1924,280.025 70.6924,280.692 71,281.5C 71.5074,290.226 72.5074,298.892 74,307.5C 77.5425,314.7 80.8758,322.033 84,329.5C 84.7979,333.535 85.6312,337.535 86.5,341.5C 87.5,341.5 88.5,341.5 89.5,341.5C 91.225,346.619 93.725,351.285 97,355.5C 97.4935,357.134 97.6602,358.801 97.5,360.5C 99.143,360.48 100.476,361.147 101.5,362.5C 104.256,365.78 106.256,369.447 107.5,373.5C 109.433,373.729 111.1,374.562 112.5,376C 114,378.167 115.833,380 118,381.5C 119.438,382.9 120.271,384.567 120.5,386.5C 127.095,391.478 133.762,396.478 140.5,401.5C 141.386,402.325 141.719,403.325 141.5,404.5C 142.5,404.5 143.5,404.5 144.5,404.5C 144.5,405.5 144.5,406.5 144.5,407.5C 147.5,407.833 149.167,409.5 149.5,412.5C 152.308,412.693 154.975,413.36 157.5,414.5C 157.5,415.5 157.5,416.5 157.5,417.5C 159.167,417.5 160.833,417.5 162.5,417.5C 162.5,418.5 162.5,419.5 162.5,420.5C 165.887,421.018 169.221,421.851 172.5,423C 178.883,426.136 185.217,429.469 191.5,433C 197.023,434.754 202.689,435.754 208.5,436C 208.957,436.414 209.291,436.914 209.5,437.5C 217.517,439.225 225.517,441.059 233.5,443C 244.161,443.5 254.828,443.667 265.5,443.5C 265.08,445.094 264.414,446.594 263.5,448C 266.6,451.451 269.933,451.951 273.5,449.5C 275.1,449.551 276.6,449.884 278,450.5C 285.802,448.84 291.635,447.84 295.5,447.5C 295.227,449.451 295.893,450.951 297.5,452C 295.384,453.171 294.718,454.671 295.5,456.5C 297.703,456.587 299.87,456.587 302,456.5C 302.739,455.426 303.739,454.759 305,454.5C 306.714,456.966 308.714,458.299 311,458.5C 312,456.5 313,454.5 314,452.5C 314.833,453.333 315.667,454.167 316.5,455C 316.065,457.867 314.899,460.367 313,462.5C 311.759,460.579 310.259,460.246 308.5,461.5C 305.509,464.046 305.176,466.712 307.5,469.5C 302.674,473.346 301.674,472.346 304.5,466.5C 303.5,465.667 302.5,464.833 301.5,464C 303.007,463.163 303.507,461.996 303,460.5C 301.509,462.004 299.676,462.837 297.5,463C 298.696,463.654 298.696,464.154 297.5,464.5C 295.837,463.125 294.503,463.458 293.5,465.5C 291.93,465.306 290.43,465.306 289,465.5C 286.232,466.208 285.399,467.708 286.5,470C 284.444,470.311 282.444,470.811 280.5,471.5C 277.607,470.209 274.94,470.709 272.5,473C 274.167,473.333 275.833,473.667 277.5,474C 276.167,475 276.167,476 277.5,477C 276.448,478.119 275.281,478.619 274,478.5C 273.333,479.5 273.333,480.5 274,481.5C 278.079,482.629 282.245,482.796 286.5,482C 289.714,481.591 292.88,480.424 296,478.5C 297.062,480.208 298.229,480.874 299.5,480.5C 297.922,481.298 296.256,481.798 294.5,482C 295.572,483.284 296.905,483.617 298.5,483C 298.167,483.333 297.833,483.667 297.5,484C 300.704,484.263 302.704,485.93 303.5,489C 305.577,489.192 307.577,489.692 309.5,490.5C 308.833,490.833 308.167,491.167 307.5,491.5C 309.029,493.316 310.696,493.983 312.5,493.5C 308.094,495.033 303.427,496.033 298.5,496.5C 298.291,497.086 297.957,497.586 297.5,498C 283.445,498.606 269.445,499.773 255.5,501.5C 241.691,500.822 228.024,499.656 214.5,498C 213.833,497.333 213.167,496.667 212.5,496C 208.167,495.667 203.833,495.333 199.5,495C 193.369,493.634 187.369,492.134 181.5,490.5C 181.5,489.5 181.5,488.5 181.5,487.5C 177.077,487.31 172.744,486.643 168.5,485.5C 168.5,484.5 168.5,483.5 168.5,482.5C 162.001,481.204 155.668,479.538 149.5,477.5C 149.5,476.5 149.5,475.5 149.5,474.5C 146.167,473.833 142.833,473.167 139.5,472.5C 139.5,471.5 139.5,470.5 139.5,469.5C 134.989,468.069 130.656,466.403 126.5,464.5C 126.5,463.5 126.5,462.5 126.5,461.5C 120.793,459.992 116.126,456.825 112.5,452C 109.411,449.777 106.078,447.944 102.5,446.5C 102.5,445.5 102.5,444.5 102.5,443.5C 101.127,443.657 99.7932,443.49 98.5,443C 97.0435,441.303 95.3768,439.803 93.5,438.5C 92.6143,437.675 92.281,436.675 92.5,435.5C 89.5,435.167 87.8333,433.5 87.5,430.5C 86.5,430.5 85.5,430.5 84.5,430.5C 84.5,429.5 84.5,428.5 84.5,427.5C 81.5,427.167 79.8333,425.5 79.5,422.5C 73.0541,419.014 68.7207,413.681 66.5,406.5C 64.3944,406.321 62.7277,405.321 61.5,403.5C 60.2943,401.206 59.2943,398.873 58.5,396.5C 57.5,396.5 56.5,396.5 55.5,396.5C 54.3608,393.996 53.6941,391.33 53.5,388.5C 52.5,388.5 51.5,388.5 50.5,388.5C 48.024,382.944 45.024,377.611 41.5,372.5C 40.5481,370.955 40.2148,369.288 40.5,367.5C 39.5,367.5 38.5,367.5 37.5,367.5C 35.4128,361.687 33.7462,355.687 32.5,349.5C 31.5,349.5 30.5,349.5 29.5,349.5C 27.357,343.24 25.5237,336.906 24,330.5C 23.3333,329.833 22.6667,329.167 22,328.5C 20.3205,317.063 17.6538,306.063 14,295.5C 12.1209,282.011 11.2876,268.345 11.5,254.5C 11.6667,247.167 11.8333,239.833 12,232.5C 12.7172,231.956 13.2172,231.289 13.5,230.5C 15.3386,231.582 17.3386,232.415 19.5,233C 18.4954,234.507 17.162,235.673 15.5,236.5C 16.919,238.336 18.0857,240.336 19,242.5C 19.1617,238.86 19.8284,235.194 21,231.5C 21.7065,229.919 22.5399,228.419 23.5,227C 22.5209,225.221 22.8542,223.555 24.5,222C 23.5533,219.812 23.5533,217.478 24.5,215C 25,214.5 25.5,214 26,213.5C 26.3333,215.167 26.6667,216.833 27,218.5C 27.2178,215.574 27.7178,212.74 28.5,210C 27.5,209.667 26.5,209.333 25.5,209C 26.8333,208 26.8333,207 25.5,206C 26.3333,205.167 27.1667,204.333 28,203.5C 30.9821,206.264 31.1488,209.264 28.5,212.5C 29.4837,219.643 29.4837,226.476 28.5,233C 29.1905,234.067 29.6905,235.234 30,236.5C 31.6667,236.167 33.3333,235.833 35,235.5C 38.2887,239.275 41.7887,239.775 45.5,237C 43.3056,231.811 40.4723,231.311 37,235.5C 36.6827,233.699 36.016,233.366 35,234.5C 33.5806,233.54 32.0806,232.707 30.5,232C 32.0441,231.71 33.3774,231.044 34.5,230C 34.1521,227.492 34.8188,224.992 36.5,222.5C 35.1246,220.837 35.458,219.503 37.5,218.5C 35.0087,217.459 35.0087,216.626 37.5,216C 36.7433,214.488 35.7433,213.154 34.5,212C 34.8333,211.667 35.1667,211.333 35.5,211C 34.0924,206.77 32.4258,202.604 30.5,198.5C 31.2739,197.289 32.1072,197.289 33,198.5C 33.6924,197.975 34.1924,197.308 34.5,196.5C 33.8333,196.167 33.1667,195.833 32.5,195.5C 33.2326,193.368 33.2326,191.535 32.5,190C 31.1011,189.405 29.7678,189.572 28.5,190.5C 27.2624,194.311 26.5958,194.311 26.5,190.5C 24.5082,190.328 22.8415,190.995 21.5,192.5C 21.1667,192.167 20.8333,191.833 20.5,191.5C 21.2768,189.461 22.4435,188.795 24,189.5C 24.4828,188.552 24.6495,187.552 24.5,186.5C 26.8273,186.753 28.8273,186.086 30.5,184.5C 36.2551,172.381 40.7551,160.048 44,147.5C 44.6667,146.833 45.3333,146.167 46,145.5C 47.1475,146.458 48.1475,146.125 49,144.5C 51.2431,146.282 53.7431,146.782 56.5,146C 54.0059,144.088 54.1726,142.254 57,140.5C 57.6667,143.167 58.3333,143.167 59,140.5C 59.8372,142.351 60.6705,144.184 61.5,146C 62.1667,146.167 62.8333,146.333 63.5,146.5C 66.4754,143.974 67.6421,144.641 67,148.5C 67.9147,147.672 68.5814,146.672 69,145.5C 69.3333,146.5 69.6667,147.5 70,148.5C 70.7412,147.359 71.5745,147.359 72.5,148.5C 74.1709,151.327 76.0043,153.994 78,156.5C 79,154.5 80,152.5 81,150.5C 81.3333,150.833 81.6667,151.167 82,151.5C 82.8747,148.785 84.7081,147.452 87.5,147.5C 87.4682,143.364 89.3015,140.364 93,138.5C 93.49,137.207 93.6567,135.873 93.5,134.5C 95.2012,134.966 96.7012,134.966 98,134.5C 98.49,135.793 98.6567,137.127 98.5,138.5C 100.582,138.472 102.416,139.139 104,140.5C 104.422,138.574 105.589,137.574 107.5,137.5 Z"/></g>
<g><path style="opacity:0.004" fill="#fefffe" d="M 44.5,403.5 C 46.337,403.639 46.6704,404.306 45.5,405.5C 44.7025,405.043 44.3691,404.376 44.5,403.5 Z"/></g>
<g><path style="opacity:0.647" fill="#eff3f5" d="M 478.5,149.5 C 481.179,157.762 484.179,166.095 487.5,174.5C 488.086,174.709 488.586,175.043 489,175.5C 490.729,183.75 492.729,191.75 495,199.5C 495.667,200.167 496.333,200.833 497,201.5C 498.46,209.867 499.46,218.534 500,227.5C 500.667,228.167 501.333,228.833 502,229.5C 502.667,247.833 502.667,266.167 502,284.5C 499.879,289.879 498.879,295.546 499,301.5C 497.768,304.3 497.101,307.3 497,310.5C 492.596,318.085 489.929,326.419 489,335.5C 488.586,335.957 488.086,336.291 487.5,336.5C 485.503,342.496 483.503,348.496 481.5,354.5C 480.5,354.5 479.5,354.5 478.5,354.5C 478.663,356.857 478.497,359.19 478,361.5C 476.94,364.822 475.44,367.822 473.5,370.5C 472.5,370.5 471.5,370.5 470.5,370.5C 469.833,373.833 469.167,377.167 468.5,380.5C 467.5,380.5 466.5,380.5 465.5,380.5C 464.022,384.275 462.355,387.942 460.5,391.5C 459.5,391.5 458.5,391.5 457.5,391.5C 457.307,394.308 456.64,396.975 455.5,399.5C 454.5,399.5 453.5,399.5 452.5,399.5C 451.344,403.145 449.678,406.478 447.5,409.5C 446.5,409.5 445.5,409.5 444.5,409.5C 444.167,412.5 442.5,414.167 439.5,414.5C 439.785,416.288 439.452,417.955 438.5,419.5C 432.385,425.57 426.385,431.737 420.5,438C 417.036,439.836 413.702,441.669 410.5,443.5C 410.719,444.675 410.386,445.675 409.5,446.5C 407.623,447.803 405.957,449.303 404.5,451C 401.496,451.513 399.162,453.013 397.5,455.5C 395.955,456.452 394.288,456.785 392.5,456.5C 392.5,457.5 392.5,458.5 392.5,459.5C 389.975,460.64 387.308,461.307 384.5,461.5C 384.5,462.5 384.5,463.5 384.5,464.5C 382.833,464.5 381.167,464.5 379.5,464.5C 379.5,465.5 379.5,466.5 379.5,467.5C 376.67,467.694 374.004,468.361 371.5,469.5C 371.5,470.5 371.5,471.5 371.5,472.5C 365.245,474.076 359.245,476.076 353.5,478.5C 349.551,480.761 345.551,482.927 341.5,485C 336.986,486.476 332.319,487.476 327.5,488C 327.043,488.414 326.709,488.914 326.5,489.5C 321.643,490.402 316.976,491.735 312.5,493.5C 310.696,493.983 309.029,493.316 307.5,491.5C 308.167,491.167 308.833,490.833 309.5,490.5C 307.577,489.692 305.577,489.192 303.5,489C 302.704,485.93 300.704,484.263 297.5,484C 297.833,483.667 298.167,483.333 298.5,483C 296.905,483.617 295.572,483.284 294.5,482C 296.256,481.798 297.922,481.298 299.5,480.5C 298.229,480.874 297.062,480.208 296,478.5C 292.88,480.424 289.714,481.591 286.5,482C 282.245,482.796 278.079,482.629 274,481.5C 273.333,480.5 273.333,479.5 274,478.5C 275.281,478.619 276.448,478.119 277.5,477C 276.167,476 276.167,475 277.5,474C 275.833,473.667 274.167,473.333 272.5,473C 274.94,470.709 277.607,470.209 280.5,471.5C 282.444,470.811 284.444,470.311 286.5,470C 285.399,467.708 286.232,466.208 289,465.5C 290.43,465.306 291.93,465.306 293.5,465.5C 294.503,463.458 295.837,463.125 297.5,464.5C 298.696,464.154 298.696,463.654 297.5,463C 299.676,462.837 301.509,462.004 303,460.5C 303.507,461.996 303.007,463.163 301.5,464C 302.5,464.833 303.5,465.667 304.5,466.5C 301.674,472.346 302.674,473.346 307.5,469.5C 305.176,466.712 305.509,464.046 308.5,461.5C 310.259,460.246 311.759,460.579 313,462.5C 314.899,460.367 316.065,457.867 316.5,455C 315.667,454.167 314.833,453.333 314,452.5C 313,454.5 312,456.5 311,458.5C 308.714,458.299 306.714,456.966 305,454.5C 303.739,454.759 302.739,455.426 302,456.5C 299.87,456.587 297.703,456.587 295.5,456.5C 294.718,454.671 295.384,453.171 297.5,452C 295.893,450.951 295.227,449.451 295.5,447.5C 291.635,447.84 285.802,448.84 278,450.5C 276.6,449.884 275.1,449.551 273.5,449.5C 269.933,451.951 266.6,451.451 263.5,448C 264.414,446.594 265.08,445.094 265.5,443.5C 274.599,443.42 283.599,442.42 292.5,440.5C 302.198,437.189 312.198,434.856 322.5,433.5C 322.5,432.5 322.5,431.5 322.5,430.5C 324.527,430.662 326.527,430.495 328.5,430C 336.668,426.743 344.335,422.743 351.5,418C 353.134,417.506 354.801,417.34 356.5,417.5C 356.5,416.5 356.5,415.5 356.5,414.5C 360.456,413.523 363.789,411.523 366.5,408.5C 368.045,407.548 369.712,407.215 371.5,407.5C 371.5,406.5 371.5,405.5 371.5,404.5C 372.5,404.5 373.5,404.5 374.5,404.5C 374.5,403.5 374.5,402.5 374.5,401.5C 377.5,401.167 379.167,399.5 379.5,396.5C 380.675,396.719 381.675,396.386 382.5,395.5C 385.5,392.5 388.5,389.5 391.5,386.5C 392.386,385.675 392.719,384.675 392.5,383.5C 396.167,381.833 398.833,379.167 400.5,375.5C 403.5,375.167 405.167,373.5 405.5,370.5C 406.5,370.5 407.5,370.5 408.5,370.5C 409.333,367.643 410.666,364.977 412.5,362.5C 413.524,361.147 414.857,360.48 416.5,360.5C 416.215,358.712 416.548,357.045 417.5,355.5C 423.81,345.212 429.31,334.545 434,323.5C 434.494,321.866 434.66,320.199 434.5,318.5C 435.5,318.5 436.5,318.5 437.5,318.5C 438.264,312.508 439.097,306.508 440,300.5C 440.667,299.833 441.333,299.167 442,298.5C 443.847,283.69 445.347,268.856 446.5,254C 444.901,245.583 444.234,237.083 444.5,228.5C 446.117,227.962 447.784,227.629 449.5,227.5C 449.261,225.533 449.594,223.699 450.5,222C 449.198,218.683 447.864,215.35 446.5,212C 446.833,211 447.167,210 447.5,209C 446.209,206.95 445.709,204.783 446,202.5C 450.744,215.394 453.41,228.728 454,242.5C 454.667,243.167 455.333,243.833 456,244.5C 457.378,242.787 459.045,241.453 461,240.5C 465.578,241.057 470.411,241.39 475.5,241.5C 477.776,240.787 480.109,240.287 482.5,240C 481.707,238.915 481.04,237.748 480.5,236.5C 482.509,234.253 481.842,232.42 478.5,231C 479.097,228.564 479.097,225.897 478.5,223C 476.807,220.048 474.974,219.882 473,222.5C 471.527,222.868 470.027,222.368 468.5,221C 467.266,218.076 465.599,215.409 463.5,213C 465.519,212.55 467.352,211.717 469,210.5C 473.131,213.563 476.465,212.897 479,208.5C 480.356,209.38 481.856,209.714 483.5,209.5C 484.497,218.151 485.497,226.818 486.5,235.5C 486.449,237.1 486.116,238.6 485.5,240C 486.743,241.154 487.743,242.488 488.5,244C 489.448,244.483 490.448,244.649 491.5,244.5C 492.391,241.373 492.725,238.373 492.5,235.5C 491.689,234.784 491.022,233.95 490.5,233C 489.583,228.335 489.583,223.502 490.5,218.5C 488.317,210.727 486.65,202.893 485.5,195C 486.562,191.045 486.062,187.212 484,183.5C 483.667,183.833 483.333,184.167 483,184.5C 482.853,181.429 482.02,178.596 480.5,176C 480.833,175.667 481.167,175.333 481.5,175C 478.893,171.666 476.559,168.166 474.5,164.5C 474.74,160.914 474.907,157.248 475,153.5C 476.405,152.269 477.571,150.936 478.5,149.5 Z"/></g>
</svg>
